<svg width="22" height="26" viewBox="0 0 22 26" xmlns="http://www.w3.org/2000/svg" id="bell">
<path d="M20.9587 17.316L19.2427 15.028V10.868C19.2427 7.43602 17.0847 4.34202 13.8867 3.14602C13.8867 1.76802 12.7427 0.650024 11.3647 0.650024H10.6107C9.23269 0.650024 8.08869 1.76802 8.08869 3.17202C4.89069 4.36802 2.73269 7.43602 2.73269 10.894V15.054L1.01669 17.342C0.470691 18.07 0.39269 19.032 0.78269 19.864C1.17269 20.696 2.00469 21.19 2.94069 21.19H6.76269C6.76269 23.504 8.66069 25.402 10.9747 25.402C13.2887 25.402 15.1867 23.53 15.1867 21.19H19.0087C19.9187 21.19 20.7507 20.67 21.1667 19.864C21.5827 19.006 21.5047 18.044 20.9587 17.316ZM11.0007 23.426C9.75269 23.426 8.71269 22.412 8.71269 21.164H13.2887C13.2887 22.412 12.2487 23.426 11.0007 23.426ZM19.4507 18.954C19.3987 19.032 19.2947 19.214 19.0347 19.214H2.96669C2.70669 19.214 2.57669 19.032 2.55069 18.954C2.49869 18.876 2.44669 18.668 2.60269 18.46L4.50069 15.912C4.63069 15.756 4.68269 15.548 4.68269 15.34V10.868C4.68269 8.03402 6.60669 5.53802 9.33669 4.78402C9.75269 4.68002 10.0387 4.29002 10.0387 3.84802V3.14602C10.0387 2.80802 10.2987 2.54802 10.6367 2.54802H11.3907C11.7287 2.54802 11.9887 2.80802 11.9887 3.14602V3.82202C11.9887 4.26402 12.2747 4.62802 12.6907 4.75802C15.4207 5.53802 17.3187 8.06002 17.3187 10.868V15.34C17.3187 15.548 17.3967 15.756 17.5007 15.912L19.3987 18.46C19.5807 18.668 19.5027 18.876 19.4507 18.954Z" fill="#264b82"/>
</svg>
