<svg width="24" height="24" viewBox="0 0 24 24" xmlns="http://www.w3.org/2000/svg" id='search_blue'>
<path d="M14.7281 7.42407C12.8294 5.52531 9.75086 5.52531 7.85211 7.42407C5.95335 9.32283 5.95335 12.4013 7.85211 14.3001C9.75086 16.1988 12.8294 16.1988 14.7281 14.3001C16.6269 12.4013 16.6269 9.32283 14.7281 7.42407ZM6.43789 6.00985C9.1177 3.33005 13.4625 3.33005 16.1423 6.00985C18.582 8.44948 18.8006 12.2691 16.7983 14.956L20.7071 18.8649C21.0976 19.2554 21.0976 19.8885 20.7071 20.2791C20.3166 20.6696 19.6834 20.6696 19.2929 20.2791L15.3841 16.3702C12.6971 18.3726 8.87752 18.1539 6.43789 15.7143C3.75809 13.0345 3.75809 8.68966 6.43789 6.00985Z" fill="#264b82"/>
</svg>
